<svg xmlns="http://www.w3.org/2000/svg" width="33.252" height="36.787" viewBox="0 0 33.252 36.787">
  <g id="Group_129" data-name="Group 129" transform="translate(0.441 0.031)">
    <g id="Group_130" data-name="Group 130" transform="translate(0.969 0.969)">
      <path id="Path_189" data-name="Path 189" d="M1.25,7.244a21.239,21.239,0,0,0,15.216,6.6,21.239,21.239,0,0,0,15.216-6.6" transform="translate(-1.25 -1.187)" fill="none" stroke="#1a1818" stroke-linecap="round" stroke-miterlimit="10" stroke-width="2"/>
      <path id="Path_190" data-name="Path 190" d="M8.411,16.2s-.745,8.938,7.98,8.938S24.585,16.2,24.585,16.2" transform="translate(-1.175 -1.094)" fill="none" stroke="#1a1818" stroke-linecap="round" stroke-miterlimit="10" stroke-width="2"/>
      <path id="Path_191" data-name="Path 191" d="M2.472,35.751h28a1.049,1.049,0,0,0,1.03-1.265c-.425-2.022-3.222-5.757-6.85-5.757H8.482c-3.626,0-5.851,3.855-6.761,5.852A.825.825,0,0,0,2.472,35.751Z" transform="translate(-1.246 -0.963)" fill="none" stroke="#1a1818" stroke-linecap="round" stroke-miterlimit="10" stroke-width="2"/>
      <path id="Path_192" data-name="Path 192" d="M7.584,11.295S9.178,1.25,12.386,1.25c1.96,0,2.418,1.856,4.014,1.856S18.448,1.25,21,1.25c3.291,0,4.7,10.429,4.7,10.429" transform="translate(-1.184 -1.25)" fill="none" stroke="#1a1818" stroke-linecap="round" stroke-miterlimit="10" stroke-width="2"/>
    </g>
  </g>
</svg>
